<svg width="964" height="791" viewBox="0 0 964 791" fill="none" xmlns="http://www.w3.org/2000/svg">
<g clip-path="url(#clip0_70_165)">
<rect x="-1" y="-44" width="955" height="899" fill="#1E3A8A"/>
<mask id="mask0_70_165" style="mask-type:alpha" maskUnits="userSpaceOnUse" x="-135" y="409" width="1161" height="568">
<path d="M1018.57 627.677C1018.57 820.392 1132.87 976.619 421.394 976.619C91.5808 976.619 -135 894.914 -135 702.198C199.34 286.949 312.633 411.162 502.461 490.215C748.684 535.532 816.66 413.837 1018.57 627.677Z" fill="#D9D9D9"/>
</mask>
<g mask="url(#mask0_70_165)">
<rect x="-2.55139" y="313" width="955.688" height="478.347" fill="#1D4ED8"/>
<path d="M832.291 687.447L836.813 701.364H851.446L839.607 709.965L844.129 723.882L832.291 715.281L820.452 723.882L824.974 709.965L813.136 701.364H827.769L832.291 687.447Z" fill="#BFDBFE"/>
<path d="M463.711 481.002L468.233 494.919H482.867L471.028 503.52L475.55 517.437L463.711 508.836L451.873 517.437L456.395 503.52L444.556 494.919H459.19L463.711 481.002Z" fill="#BFDBFE"/>
<path d="M91.104 713.63L95.6259 727.547H110.259L98.4206 736.148L102.943 750.065L91.104 741.464L79.2655 750.065L83.7874 736.148L71.9488 727.547H86.5821L91.104 713.63Z" fill="#BFDBFE"/>
<path d="M822.22 496.108L824.481 503.066H831.798L825.879 507.367L828.14 514.325L822.22 510.025L816.301 514.325L818.562 507.367L812.643 503.066H819.959L822.22 496.108Z" fill="#BFDBFE"/>
<path d="M528.163 612.925L530.423 619.884H537.74L531.821 624.184L534.082 631.143L528.163 626.842L522.243 631.143L524.504 624.184L518.585 619.884H525.902L528.163 612.925Z" fill="#BFDBFE"/>
<path d="M260.288 727.728L262.549 734.687H269.865L263.946 738.987L266.207 745.946L260.288 741.645L254.369 745.946L256.63 738.987L250.71 734.687H258.027L260.288 727.728Z" fill="#BFDBFE"/>
<path d="M636.924 747.869L639.185 754.828H646.501L640.582 759.129L642.843 766.087L636.924 761.786L631.004 766.087L633.265 759.129L627.346 754.828H634.663L636.924 747.869Z" fill="#BFDBFE"/>
<path d="M786.974 615.946L789.235 622.905H796.551L790.632 627.205L792.893 634.164L786.974 629.863L781.054 634.164L783.315 627.205L777.396 622.905H784.713L786.974 615.946Z" fill="#BFDBFE"/>
<path d="M74.9912 615.946L77.2522 622.905H84.5688L78.6496 627.205L80.9105 634.164L74.9912 629.863L69.072 634.164L71.3329 627.205L65.4137 622.905H72.7303L74.9912 615.946Z" fill="#BFDBFE"/>
<path d="M374.084 534.375L376.345 541.334H383.662L377.743 545.634L380.004 552.593L374.084 548.292L368.165 552.593L370.426 545.634L364.507 541.334H371.823L374.084 534.375Z" fill="#BFDBFE"/>
<circle cx="221.013" cy="501.143" r="60.4228" fill="#BFDBFE"/>
<circle cx="251.225" cy="501.143" r="60.4228" fill="#1D4ED8"/>
</g>
</g>
<defs>
<clipPath id="clip0_70_165">
<rect width="964" height="791" fill="white"/>
</clipPath>
</defs>
</svg>
