<svg width="929" height="791" viewBox="0 0 929 791" fill="none" xmlns="http://www.w3.org/2000/svg">
<g clip-path="url(#clip0_70_165)">
<rect x="-4" y="-35" width="992" height="899" fill="#312E81"/>
<path d="M786.886 391.5C1179 289.647 1135.5 972.5 937.5 972.5C560.566 972.5 -97.1145 1066.53 -97.1145 584C-97.1145 385.177 47.7769 307.631 145 278C421.5 193.73 425 485.5 786.886 391.5Z" fill="#4F46E5"/>
<path d="M837.37 642.727L841.892 656.644H856.525L844.687 665.245L849.209 679.162L837.37 670.561L825.532 679.162L830.053 665.245L818.215 656.644H832.848L837.37 642.727Z" fill="#C7D2FE"/>
<path d="M468.791 436.282L473.313 450.199H487.946L476.107 458.8L480.629 472.717L468.791 464.116L456.952 472.717L461.474 458.8L449.636 450.199H464.269L468.791 436.282Z" fill="#C7D2FE"/>
<path d="M96.1832 668.91L100.705 682.827H115.338L103.5 691.428L108.022 705.345L96.1832 696.744L84.3447 705.345L88.8666 691.428L77.0281 682.827H91.6613L96.1832 668.91Z" fill="#C7D2FE"/>
<path d="M827.3 451.388L829.561 458.346H836.877L830.958 462.647L833.219 469.605L827.3 465.305L821.38 469.605L823.641 462.647L817.722 458.346H825.039L827.3 451.388Z" fill="#C7D2FE"/>
<path d="M533.242 568.205L535.503 575.164H542.819L536.9 579.464L539.161 586.423L533.242 582.122L527.322 586.423L529.583 579.464L523.664 575.164H530.981L533.242 568.205Z" fill="#C7D2FE"/>
<path d="M265.367 683.008L267.628 689.967H274.945L269.025 694.267L271.286 701.226L265.367 696.925L259.448 701.226L261.709 694.267L255.79 689.967H263.106L265.367 683.008Z" fill="#C7D2FE"/>
<path d="M642.003 703.149L644.264 710.108H651.58L645.661 714.409L647.922 721.367L642.003 717.066L636.084 721.367L638.345 714.409L632.425 710.108H639.742L642.003 703.149Z" fill="#C7D2FE"/>
<path d="M792.053 571.226L794.314 578.185H801.63L795.711 582.485L797.972 589.444L792.053 585.143L786.134 589.444L788.395 582.485L782.475 578.185H789.792L792.053 571.226Z" fill="#C7D2FE"/>
<path d="M80.0705 571.226L82.3314 578.185H89.6481L83.7288 582.485L85.9897 589.444L80.0705 585.143L74.1512 589.444L76.4122 582.485L70.4929 578.185H77.8095L80.0705 571.226Z" fill="#C7D2FE"/>
<path d="M379.163 489.655L381.424 496.614H388.741L382.822 500.914L385.083 507.873L379.163 503.572L373.244 507.873L375.505 500.914L369.586 496.614H376.903L379.163 489.655Z" fill="#C7D2FE"/>
<circle cx="226.092" cy="456.423" r="60.4228" fill="#C7D2FE"/>
<circle cx="256.304" cy="456.423" r="60.4228" fill="#4F46E5"/>
</g>
<defs>
<clipPath id="clip0_70_165">
<rect width="929" height="791" fill="white"/>
</clipPath>
</defs>
</svg>
