<svg width="180" height="180" viewBox="0 0 180 180" fill="none" xmlns="http://www.w3.org/2000/svg">
<path d="M143.206 134.619C153.365 145.154 161.582 156.157 148.351 162.412C137.492 167.546 123.368 172.818 115.583 174.367C99.0943 177.647 82.0036 175.963 66.4719 169.53C50.9402 163.096 37.665 152.202 28.3251 138.224C18.9852 124.245 14 107.811 14 91C14 74.1886 18.9852 57.7548 28.3251 43.7766C37.665 29.7984 50.9402 18.9037 66.4719 12.4703C82.0036 6.03683 99.0943 4.35355 115.583 7.63329C124.055 9.31849 140.035 15.4135 151.144 20.9418C162.544 26.6146 153.914 35.7028 144.573 44.355V44.355C136.419 51.9071 130.982 61.9366 129.104 72.8906L128.061 78.976C126.698 86.9285 126.761 95.0602 128.248 102.991L129.025 107.134C130.966 117.484 135.896 127.039 143.206 134.619V134.619Z" fill="url(#paint0_radial_66_105)"/>
<path d="M143.206 134.619C153.365 145.154 161.582 156.157 148.351 162.412C137.492 167.546 123.368 172.818 115.583 174.367C99.0943 177.647 82.0036 175.963 66.4719 169.53C50.9402 163.096 37.665 152.202 28.3251 138.224C18.9852 124.245 14 107.811 14 91C14 74.1886 18.9852 57.7548 28.3251 43.7766C37.665 29.7984 50.9402 18.9037 66.4719 12.4703C82.0036 6.03683 99.0943 4.35355 115.583 7.63329C124.055 9.31849 140.035 15.4135 151.144 20.9418C162.544 26.6146 153.914 35.7028 144.573 44.355V44.355C136.419 51.9071 130.982 61.9366 129.104 72.8906L128.061 78.976C126.698 86.9285 126.761 95.0602 128.248 102.991L129.025 107.134C130.966 117.484 135.896 127.039 143.206 134.619V134.619Z" fill="url(#paint1_radial_66_105)"/>
<mask id="mask0_66_105" style="mask-type:alpha" maskUnits="userSpaceOnUse" x="14" y="6" width="143" height="171">
<path d="M143.206 134.619C153.365 145.154 161.582 156.157 148.351 162.412C137.492 167.546 123.368 172.818 115.583 174.367C99.0943 177.647 82.0036 175.963 66.4719 169.53C50.9402 163.096 37.665 152.202 28.3251 138.224C18.9852 124.245 14 107.811 14 91C14 74.1886 18.9852 57.7548 28.3251 43.7766C37.665 29.7984 50.9402 18.9037 66.4719 12.4703C82.0036 6.03683 99.0943 4.35355 115.583 7.63329C124.055 9.31849 140.035 15.4135 151.144 20.9418C162.544 26.6146 153.914 35.7028 144.573 44.355V44.355C136.419 51.9071 130.982 61.9366 129.104 72.8906L128.061 78.976C126.698 86.9285 126.761 95.0602 128.248 102.991L129.025 107.134C130.966 117.484 135.896 127.039 143.206 134.619V134.619Z" fill="#34D399"/>
<path d="M143.206 134.619C153.365 145.154 161.582 156.157 148.351 162.412C137.492 167.546 123.368 172.818 115.583 174.367C99.0943 177.647 82.0036 175.963 66.4719 169.53C50.9402 163.096 37.665 152.202 28.3251 138.224C18.9852 124.245 14 107.811 14 91C14 74.1886 18.9852 57.7548 28.3251 43.7766C37.665 29.7984 50.9402 18.9037 66.4719 12.4703C82.0036 6.03683 99.0943 4.35355 115.583 7.63329C124.055 9.31849 140.035 15.4135 151.144 20.9418C162.544 26.6146 153.914 35.7028 144.573 44.355V44.355C136.419 51.9071 130.982 61.9366 129.104 72.8906L128.061 78.976C126.698 86.9285 126.761 95.0602 128.248 102.991L129.025 107.134C130.966 117.484 135.896 127.039 143.206 134.619V134.619Z" fill="#34D399"/>
</mask>
<g mask="url(#mask0_66_105)">
<rect x="71.7954" y="115" width="6" height="80" transform="rotate(30 71.7954 115)" fill="#525252" fill-opacity="0.6"/>
<rect x="42" y="115" width="4" height="93.7215" transform="rotate(-60 42 115)" fill="#525252" fill-opacity="0.6"/>
<rect x="43" y="123.464" width="4" height="93.7215" transform="rotate(-60 43 123.464)" fill="#525252" fill-opacity="0.6"/>
<rect x="136.583" y="6" width="3" height="130" transform="rotate(60 136.583 6)" fill="#525252" fill-opacity="0.6"/>
<rect x="138.165" y="14" width="3" height="93.7215" transform="rotate(60 138.165 14)" fill="#525252" fill-opacity="0.6"/>
</g>
<defs>
<radialGradient id="paint0_radial_66_105" cx="0" cy="0" r="1" gradientUnits="userSpaceOnUse" gradientTransform="translate(65.5 46.5) rotate(79.8768) scale(131.548 141.522)">
<stop stop-color="white"/>
<stop offset="0.3" stop-color="#83FFD2"/>
<stop offset="0.9998" stop-color="#00FFA2"/>
<stop offset="0.9999" stop-color="#18FFAB"/>
</radialGradient>
<radialGradient id="paint1_radial_66_105" cx="0" cy="0" r="1" gradientUnits="userSpaceOnUse" gradientTransform="translate(65.5 46.5) rotate(79.8768) scale(131.548 141.522)">
<stop stop-color="white"/>
<stop offset="0.3" stop-color="#83FFD2"/>
<stop offset="0.9998" stop-color="#00FFA2"/>
<stop offset="0.9999" stop-color="#18FFAB"/>
</radialGradient>
</defs>
</svg>
